<?xml version="1.0" encoding="UTF-8" standalone="no"?>
<svg
   xmlns='http://www.w3.org/2000/svg' 
   id="svg4"
   style="fill-rule:evenodd;clip-rule:evenodd;stroke-linejoin:round;stroke-miterlimit:2;"
   xml:space="preserve"
   version="1.1"
   viewBox="0 0 286.34399 231.64999"
   height="231.64999"
   width="286.34399">
   <defs
   id="defs8" />
    <path
   id="path2"
   style="fill:#ffffff;fill-rule:nonzero"
   d="m 222.182,184.861 -0.192,1.252 -0.578,0.193 -0.289,0.385 -4.236,0.674 -0.289,0.385 -0.385,2.792 v 3.273 l -0.481,0.866 0.289,1.733 -0.289,3.851 -0.193,4.236 -0.385,1.926 v 3.177 l -0.289,3.754 0.193,10.013 0.289,0.866 1.829,0.097 0.385,1.54 v 2.022 l -0.385,1.54 -0.289,0.963 -1.348,1.251 -1.348,-0.385 -1.251,-1.636 -0.289,-0.867 -0.674,-3.658 -0.385,-2.407 v -6.835 l 1.925,-23.876 0.482,-2.888 -0.193,-0.867 v -0.192 l -0.289,-0.289 -6.642,0.192 -1.059,0.289 h -1.348 l -0.482,0.385 -1.636,-0.385 -0.193,0.193 h -0.192 l -1.252,-1.541 0.578,-1.636 1.059,-1.059 0.674,-0.386 1.347,0.193 2.889,0.193 0.866,0.288 1.829,-0.481 1.348,0.385 2.503,-0.192 0.482,-0.674 0.866,-15.597 0.578,-5.583 v -1.926 l 0.289,-4.043 v -9.146 l -0.482,-1.541 0.482,-1.54 0.577,-0.289 0.867,-0.385 h 0.77 l 1.059,1.54 v 7.413 l -0.385,0.867 -0.867,15.115 -0.289,1.251 -0.192,3.177 v 2.889 l -0.385,0.481 -0.096,6.739 -0.386,1.059 0.482,0.481 3.466,0.193 z m -21.276,20.796 -0.193,1.251 -0.289,0.867 -2.888,2.599 -3.851,1.54 -3.177,-0.192 -1.925,-0.77 -2.6,-2.6 -2.214,-3.754 -0.674,-1.637 -0.481,-0.867 -0.385,-1.54 -0.482,-1.54 -0.577,-2.503 -0.289,-0.578 -0.193,-2.696 -0.289,-0.385 v -2.118 l -0.673,-1.251 -0.193,-9.339 0.193,-5.102 0.385,-3.659 0.096,-4.525 v -2.888 l -0.385,-0.577 v -2.696 l 1.636,-1.54 2.022,0.192 0.482,0.289 0.481,0.866 -0.096,2.407 -0.385,0.482 -0.193,2.021 -0.289,1.444 -0.385,3.851 -0.289,2.022 -0.192,6.932 v 3.08 l 0.289,2.985 h 3.369 l 1.252,-0.289 2.118,-0.192 4.043,-0.482 h 1.348 l 4.236,0.385 0.77,0.482 v 1.348 l -0.481,0.288 -2.696,0.193 -2.214,0.578 h -1.541 l -3.465,0.773 -2.792,0.484 -1.059,0.483 -2.022,0.387 -0.481,0.484 0.288,4.352 0.482,1.063 0.385,1.839 1.54,4.255 2.215,4.159 2.214,2.225 1.829,0.483 4.236,-1.348 2.022,-1.54 0.481,-1.155 h 1.059 l 0.482,0.288 z m -22.528,-13.19 -0.482,3.273 -0.481,1.926 -0.385,2.118 -1.541,4.236 -0.866,0.481 -0.481,0.867 -0.674,0.674 -1.059,-0.193 -3.37,-3.658 -2.31,-4.14 -1.733,-4.044 -0.867,-3.08 -0.866,-0.867 -0.77,0.867 -0.771,1.636 -2.984,5.488 -0.193,0.866 -2.214,2.215 -2.022,-0.674 -0.866,-1.252 -0.193,-1.54 -2.021,-6.162 -0.386,-2.599 -0.962,-5.873 -0.482,-1.444 -0.674,-0.866 -0.385,-1.348 1.156,-1.155 1.54,-0.193 1.059,0.193 1.059,1.059 0.481,2.214 0.097,6.739 1.348,5.103 0.577,1.155 v 0.192 l 0.289,0.289 1.059,-0.963 0.866,-1.925 0.482,-0.289 0.963,-2.407 1.059,-1.54 0.577,-2.022 0.096,-1.829 1.733,-0.963 1.541,0.289 0.962,0.674 1.06,1.155 0.385,2.118 1.347,5.199 0.289,1.54 0.482,0.674 0.385,1.637 1.829,3.755 1.251,1.059 0.771,-1.348 0.192,-1.252 0.867,-1.444 0.481,-2.888 0.578,-1.829 v -3.466 l 0.288,-2.022 0.289,-4.91 -0.192,-0.866 0.838,-0.867 1.116,0.193 0.838,1.155 v 6.547 l -0.385,0.77 z m 107.966,-33.084 -0.584,3.794 -0.875,2.627 -8.757,7.881 -11.676,4.671 -9.632,-0.584 -5.838,-2.335 -7.881,-7.881 -6.713,-11.384 -2.044,-4.962 -1.459,-2.627 -1.168,-4.67 -1.459,-4.671 -1.751,-7.589 -0.876,-1.751 -0.584,-8.173 -0.875,-1.168 v -6.421 l -2.044,-3.795 -0.583,-28.313 0.583,-15.47 1.168,-11.092 0.292,-13.719 V 32.994 L 222.42,31.243 V 23.07 l 4.962,-4.67 6.13,0.583 1.46,0.876 1.459,2.627 -0.292,7.297 -1.167,1.46 -0.584,6.13 -0.876,4.378 -1.168,11.676 -0.875,6.129 -0.584,21.016 v 9.341 l 0.876,9.048 h 10.216 l 3.794,-0.875 6.422,-0.584 12.259,-1.459 h 4.087 l 12.843,1.167 2.335,1.46 v 4.086 l -1.459,0.876 -8.173,0.583 -6.714,1.752 h -4.67 l -10.508,2.344 -8.465,1.469 -3.211,1.464 -6.129,1.172 -1.46,1.468 0.876,13.195 1.459,3.224 1.168,5.573 4.67,12.903 6.714,12.61 6.713,6.746 5.546,1.464 12.843,-4.087 6.13,-4.67 1.459,-3.503 h 3.211 l 1.46,0.876 z M 63.34,147.707 l -1.168,1.46 -1.459,1.751 -9.924,2.627 -9.049,2.919 -2.627,1.459 -4.378,1.168 -2.627,1.459 -6.422,1.168 -4.962,1.459 -11.092,0.584 -7.005,-5.838 -0.876,-0.875 0.876,-2.627 L 0,147.707 v -19.848 l 1.167,-12.552 v -3.502 L 3.794,96.334 9.632,55.178 8.173,38.54 v -5.546 l 4.086,-2.043 5.838,1.756 1.459,2.048 1.168,4.684 -1.168,4.971 v 10.535 l -0.875,6.144 -1.168,7.023 -0.875,8.775 -1.752,2.636 v 8.192 l -2.627,13.458 -0.875,12.876 -0.876,14.922 v 8.78 l 1.751,9.071 1.168,2.34 3.211,2.048 h 6.713 l 3.503,-1.218 6.713,-0.611 13.135,-4.264 7.298,-0.913 5.545,0.584 2.627,0.876 z m 80.27,-49.037 -1.752,12.843 -3.21,9.34 -4.962,6.13 -1.46,3.211 -4.086,2.335 -5.254,5.254 -10.217,7.297 -14.01,6.714 -7.589,0.875 -4.671,-0.875 -6.713,-3.211 -8.173,-12.26 -1.168,-8.173 -0.875,-1.167 0.875,-4.962 0.584,-11.968 0.876,-2.043 -0.292,-2.919 -2.043,-1.459 2.919,-9.925 12.259,-12.843 1.751,-1.459 13.427,-5.838 6.714,-1.459 14.594,0.875 11.968,6.422 8.173,10.216 z m 76.183,0 -1.751,12.843 -3.211,9.34 -4.962,6.13 -1.46,3.211 -4.086,2.335 -5.254,5.254 -10.216,7.297 -14.011,6.714 -7.589,0.875 -4.67,-0.875 -6.714,-3.211 -8.173,-12.26 -1.167,-8.173 -0.876,-1.167 0.876,-4.962 0.584,-11.968 0.875,-2.043 -0.292,-2.919 -2.043,-1.459 2.919,-9.925 12.259,-12.843 1.752,-1.459 13.427,-5.838 6.713,-1.459 14.595,0.875 11.967,6.422 8.173,10.216 z m -87.275,2.335 -1.459,-2.919 -0.292,-4.379 -11.384,-10.508 -4.087,-1.751 -7.297,-0.584 -4.67,0.584 -2.043,1.751 -3.795,0.292 -11.675,7.881 v 0.876 l 0.583,0.584 0.876,4.086 -2.043,3.795 -2.627,7.589 -2.043,14.303 1.751,12.843 3.503,5.254 5.545,0.584 h 6.13 l 17.805,-9.925 10.509,-9.632 5.254,-9.341 1.167,-4.086 z m 76.183,0 -1.459,-2.919 -0.292,-4.379 -11.384,-10.508 -4.086,-1.751 -7.297,-0.584 -4.671,0.584 -2.043,1.751 -3.794,0.292 -11.676,7.881 v 0.876 l 0.584,0.584 0.875,4.086 -2.043,3.795 -2.627,7.589 -2.043,14.303 1.751,12.843 3.503,5.254 5.546,0.584 h 6.13 l 17.805,-9.925 10.508,-9.632 5.254,-9.341 1.167,-4.086 z m -134.87,-28.607 -0.385,2.599 -0.867,2.985 -0.962,1.444 -4.621,3.755 -4.91,2.984 -1.348,0.385 -0.674,0.481 -1.54,0.386 -0.482,0.481 -2.214,0.578 -4.236,0.481 -3.755,-0.193 -5.872,-2.021 -2.889,-2.022 -1.925,-1.733 -2.888,-4.525 -0.674,-2.118 -0.385,-0.289 -0.289,-1.54 -0.482,-2.407 v -3.177 l 0.482,-2.214 0.289,-1.541 v -0.288 l 3.658,-4.236 3.562,-3.081 3.851,-1.926 2.792,-0.962 2.311,-0.385 1.347,-0.289 -0.288,-1.541 -1.252,-1.636 v -0.385 l -3.851,-4.718 -0.578,-1.733 0.193,-0.866 v -0.193 l -0.289,-0.289 -3.754,-0.577 -2.889,-1.059 -1.733,-1.444 -2.021,-2.792 -0.771,-2.6 V 30.23 l 2.311,-5.391 0.674,-1.155 1.54,-1.348 h 2.889 l 0.866,0.481 0.77,1.444 1.252,-0.577 1.636,-0.674 0.867,-1.252 v -0.289 l 3.562,-3.273 0.866,-0.963 h 0.289 l 3.659,-3.369 2.503,0.096 1.059,1.829 -0.385,1.926 v 1.54 l -0.867,0.674 H 56.02 v -0.096 l -0.481,-0.578 -1.251,0.578 -1.926,1.251 -1.925,2.696 3.369,3.755 2.022,3.947 v 3.177 l -1.348,3.081 -2.599,2.214 -3.37,1.829 -0.096,0.193 1.155,1.347 0.674,2.022 2.118,2.888 2.599,4.718 1.541,2.984 0.866,0.578 0.289,1.444 -0.192,0.481 0.77,0.482 h 2.118 l 3.658,0.866 2.503,0.963 2.696,2.31 2.696,3.37 1.155,2.792 0.385,1.54 z M 70.558,71.146 69.691,68.258 66.707,64.504 64.493,63.156 61.123,62 h -7.028 l -0.866,0.372 -1.83,0.278 -2.888,1.02 -4.236,3.248 -0.963,0.185 -0.481,-0.385 V 65.851 L 43.12,64.504 45.334,62 46.778,61.134 48.03,60.267 52.266,58.92 50.725,57.764 h -0.866 l -0.193,0.193 -1.829,0.096 -2.888,0.867 -4.043,2.406 -2.311,2.215 -1.059,1.444 -1.059,2.118 -0.481,1.637 -0.193,3.273 1.059,4.236 1.733,3.755 3.37,3.658 1.636,0.866 1.541,0.867 2.695,0.674 h 4.236 l 5.103,-0.963 2.021,-0.578 2.696,-1.347 4.621,-3.081 2.6,-2.407 1.347,-2.311 z m 49.869,-21.757 -0.192,3.273 h -1.541 l -0.77,-0.867 v -0.481 l -0.577,-0.481 v -0.77 l -0.482,-0.674 v -5.681 l -0.385,-0.577 0.385,-0.482 -0.192,-6.835 -0.385,-4.043 v -0.867 l -0.482,-1.637 0.193,-1.347 1.059,-1.059 1.636,0.385 0.867,0.674 0.289,0.288 v 4.91 l 0.385,0.482 -0.385,0.866 v 7.606 l 0.192,5.006 z m -10.205,-48.233 -0.385,4.428 -0.192,9.628 -0.77,12.9 -0.386,3.177 0.097,11.746 0.385,1.251 0.192,1.444 0.289,0.385 0.385,2.215 -0.385,0.481 V 49.1 l -0.963,0.385 -0.673,-0.096 -1.059,-1.059 -1.059,-2.6 -0.289,-3.754 v -7.414 l 0.289,-5.872 0.577,-6.354 v -4.333 l 0.33,-3.754 0.44,-3.755 V 3.562 L 105.986,2.118 V 1.156 l 0.771,-0.963 0.481,-0.193 2.118,0.482 0.289,0.192 z m -26.379,30.326 -0.577,4.236 -1.059,3.081 -1.637,2.021 -0.481,1.059 -1.348,0.77 -1.733,1.733 -3.37,2.407 -4.621,2.214 -2.503,0.289 -1.54,-0.289 -2.214,-1.059 -2.696,-4.043 -0.385,-2.696 -0.289,-0.385 0.289,-1.636 0.192,-3.948 0.289,-0.674 -0.096,-0.962 -0.674,-0.482 0.963,-3.273 4.043,-4.236 0.578,-0.481 4.428,-1.926 2.215,-0.481 4.813,0.289 3.948,2.118 2.695,3.369 z m 18.581,-1.541 -0.192,3.081 -0.963,2.696 -0.963,1.733 -0.192,0.866 -1.541,1.829 -4.91,6.932 -2.214,1.54 H 90.39 l -1.829,-1.251 -0.674,-1.829 -1.348,-2.407 -0.385,-1.637 -0.481,-4.91 -0.482,-5.68 -0.866,-1.059 v -1.444 l 0.385,-0.674 h 0.096 l 0.674,-0.674 v -3.081 l 0.481,-6.257 0.386,-1.637 0.385,-8.857 V 2.985 L 87.02,2.118 87.213,1.83 88.176,1.156 h 0.866 l 0.867,1.155 v 4.621 l -0.482,5.199 v 1.251 l -0.385,4.525 -0.096,3.947 v 4.525 h 2.888 l 2.985,-0.289 1.251,0.289 1.829,0.193 2.985,1.348 z m 40.916,15.395 -0.099,1.16 -1.282,1.063 -1.185,-0.192 -0.69,-0.385 -0.691,-1.059 -0.577,-7.028 v -7.124 l -0.867,-3.563 -0.192,-0.096 -0.771,0.963 -0.77,1.348 -2.118,3.851 -2.214,4.236 -4.14,5.487 -1.637,1.348 -0.577,-0.192 -1.637,-1.348 -0.481,-1.156 0.096,-2.406 1.252,-6.932 0.192,-1.829 0.289,-0.578 v -3.081 l -0.866,-2.021 0.192,-0.867 1.348,-1.059 1.54,-0.385 0.867,0.674 0.481,0.481 v 5.777 l -0.481,1.733 -0.193,1.54 -0.481,2.503 -0.193,0.193 v 0.481 l 0.488,0.578 2.146,-2.326 2.341,-4.555 0.878,-1.937 1.073,-1.648 1.659,-2.617 1.365,-1.357 1.074,-0.29 1.657,0.192 0.879,0.871 1.17,6.765 v 9.859 l 0.674,3.866 z m -63.155,-13.084 -0.481,-0.963 -0.097,-1.444 -3.754,-3.466 -1.348,-0.577 -2.407,-0.193 -1.54,0.193 -0.674,0.577 -1.252,0.097 -3.851,2.599 v 0.289 l 0.193,0.192 0.289,1.348 -0.674,1.252 -0.867,2.503 -0.674,4.717 0.578,4.236 1.155,1.733 1.83,0.193 h 2.021 l 5.873,-3.274 3.466,-3.177 1.733,-3.08 0.385,-1.348 z M 99.055,31.674 98.188,30.326 96.552,29.46 94.626,29.267 94.53,29.46 h -1.733 l -3.273,0.385 -0.482,0.481 -0.385,0.963 0.385,4.14 0.482,3.947 0.866,2.6 0.867,1.155 0.673,-0.578 0.674,-0.192 0.867,-0.867 4.236,-5.776 1.059,-2.022 z M 52.747,32.83 52.362,32.541 v -1.252 l -2.984,-3.754 -1.83,-1.541 h -2.214 l -1.925,0.674 -1.156,0.193 -0.481,-0.289 V 25.513 L 41.387,25.128 H 40.52 l -0.288,0.192 -1.444,1.348 -0.097,0.77 -0.866,0.867 -0.482,1.348 -0.385,1.155 V 33.6 l 0.771,2.407 1.347,1.829 0.771,0.577 2.214,0.867 2.888,0.192 0.866,-0.385 1.252,-0.192 2.118,-1.155 v -0.193 l 3.081,-2.311 z m 65.755,-22.913 -0.096,0.673 -0.771,0.386 -3.851,-0.578 -1.347,-0.674 -1.059,-1.54 V 7.221 l 0.674,-1.252 0.866,-0.481 2.022,0.192 1.348,1.059 1.059,1.926 z" />
</svg>