<?xml version="1.0" encoding="UTF-8" standalone="no"?>
<svg
   xmlns='http://www.w3.org/2000/svg' 
   id="svg4"
   style="fill-rule:evenodd;clip-rule:evenodd;stroke-linejoin:round;stroke-miterlimit:2;"
   xml:space="preserve"
   version="1.1"
   viewBox="0 0 350 350"
   height="100%"
   width="100%"><defs
   id="defs8" />
    <path
   id="path2"
   style="fill:white;fill-rule:nonzero;"
   d="M254.01,255.244L253.818,256.496L253.24,256.689L252.951,257.074L248.715,257.748L248.426,258.133L248.041,260.925L248.041,264.198L247.56,265.064L247.849,266.797L247.56,270.648L247.367,274.884L246.982,276.81L246.982,279.987L246.693,283.741L246.886,293.754L247.175,294.62L249.004,294.717L249.389,296.257L249.389,298.279L249.004,299.819L248.715,300.782L247.367,302.033L246.019,301.648L244.768,300.012L244.479,299.145L243.805,295.487L243.42,293.08L243.42,286.245L245.345,262.369L245.827,259.481L245.634,258.614L245.634,258.422L245.345,258.133L238.703,258.325L237.644,258.614L236.296,258.614L235.814,258.999L234.178,258.614L233.985,258.807L233.793,258.807L232.541,257.266L233.119,255.63L234.178,254.571L234.852,254.185L236.199,254.378L239.088,254.571L239.954,254.859L241.783,254.378L243.131,254.763L245.634,254.571L246.116,253.897L246.982,238.3L247.56,232.717L247.56,230.791L247.849,226.748L247.849,217.602L247.367,216.061L247.849,214.521L248.426,214.232L249.293,213.847L250.063,213.847L251.122,215.387L251.122,222.8L250.737,223.667L249.87,238.782L249.581,240.033L249.389,243.21L249.389,246.099L249.004,246.58L248.908,253.319L248.522,254.378L249.004,254.859L252.47,255.052L254.01,255.244ZM232.734,276.04L232.541,277.291L232.252,278.158L229.364,280.757L225.513,282.297L222.336,282.105L220.411,281.335L217.811,278.735L215.597,274.981L214.923,273.344L214.442,272.477L214.057,270.937L213.575,269.397L212.998,266.894L212.709,266.316L212.516,263.62L212.227,263.235L212.227,261.117L211.554,259.866L211.361,250.527L211.554,245.425L211.939,241.766L212.035,237.241L212.035,234.353L211.65,233.776L211.65,231.08L213.286,229.54L215.308,229.732L215.79,230.021L216.271,230.887L216.175,233.294L215.79,233.776L215.597,235.797L215.308,237.241L214.923,241.092L214.634,243.114L214.442,250.046L214.442,253.126L214.731,256.111L218.1,256.111L219.352,255.822L221.47,255.63L225.513,255.148L226.861,255.148L231.097,255.533L231.867,256.015L231.867,257.363L231.386,257.651L228.69,257.844L226.476,258.422L224.935,258.422L221.47,259.195L218.678,259.679L217.619,260.162L215.597,260.549L215.116,261.033L215.404,265.385L215.886,266.448L216.271,268.287L217.811,272.542L220.026,276.701L222.24,278.926L224.069,279.409L228.305,278.061L230.327,276.521L230.808,275.366L231.867,275.366L232.349,275.654L232.734,276.04ZM210.206,262.85L209.724,266.123L209.243,268.049L208.858,270.167L207.317,274.403L206.451,274.884L205.97,275.751L205.296,276.425L204.237,276.232L200.867,272.574L198.557,268.434L196.824,264.39L195.957,261.31L195.091,260.443L194.321,261.31L193.55,262.946L190.566,268.434L190.373,269.3L188.159,271.515L186.137,270.841L185.271,269.589L185.078,268.049L183.057,261.887L182.671,259.288L181.709,253.415L181.227,251.971L180.553,251.105L180.168,249.757L181.324,248.602L182.864,248.409L183.923,248.602L184.982,249.661L185.463,251.875L185.56,258.614L186.908,263.717L187.485,264.872L187.485,265.064L187.774,265.353L188.833,264.39L189.699,262.465L190.181,262.176L191.144,259.769L192.203,258.229L192.78,256.207L192.876,254.378L194.609,253.415L196.15,253.704L197.112,254.378L198.172,255.533L198.557,257.651L199.904,262.85L200.193,264.39L200.675,265.064L201.06,266.701L202.889,270.456L204.14,271.515L204.911,270.167L205.103,268.915L205.97,267.471L206.451,264.583L207.029,262.754L207.029,259.288L207.317,257.266L207.606,252.356L207.414,251.49L208.252,250.623L209.368,250.816L210.206,251.971L210.206,258.518L209.821,259.288L210.206,262.85ZM318.172,229.766L317.588,233.56L316.713,236.187L307.956,244.068L296.28,248.739L286.648,248.155L280.81,245.82L272.929,237.939L266.216,226.555L264.172,221.593L262.713,218.966L261.545,214.296L260.086,209.625L258.335,202.036L257.459,200.285L256.875,192.112L256,190.944L256,184.523L253.956,180.728L253.373,152.415L253.956,136.945L255.124,125.853L255.416,112.134L255.416,103.377L254.248,101.626L254.248,93.453L259.21,88.783L265.34,89.366L266.8,90.242L268.259,92.869L267.967,100.166L266.8,101.626L266.216,107.756L265.34,112.134L264.172,123.81L263.297,129.939L262.713,150.955L262.713,160.296L263.589,169.344L273.805,169.344L277.599,168.469L284.021,167.885L296.28,166.426L300.367,166.426L313.21,167.593L315.545,169.053L315.545,173.139L314.086,174.015L305.913,174.598L299.199,176.35L294.529,176.35L284.021,178.694L275.556,180.163L272.345,181.627L266.216,182.799L264.756,184.267L265.632,197.462L267.091,200.686L268.259,206.259L272.929,219.162L279.643,231.772L286.356,238.518L291.902,239.982L304.745,235.895L310.875,231.225L312.334,227.722L315.545,227.722L317.005,228.598L318.172,229.766ZM95.168,218.09L94,219.55L92.541,221.301L82.617,223.928L73.568,226.847L70.941,228.306L66.563,229.474L63.936,230.933L57.514,232.101L52.552,233.56L41.46,234.144L34.455,228.306L33.579,227.431L34.455,224.804L31.828,218.09L31.828,198.242L32.995,185.69L32.995,182.188L35.622,166.717L41.46,125.561L40.001,108.923L40.001,103.377L44.087,101.334L49.925,103.09L51.384,105.138L52.552,109.822L51.384,114.793L51.384,125.328L50.509,131.472L49.341,138.495L48.466,147.27L46.714,149.906L46.714,158.098L44.087,171.556L43.212,184.432L42.336,199.354L42.336,208.134L44.087,217.205L45.255,219.545L48.466,221.593L55.179,221.593L58.682,220.375L65.395,219.764L78.53,215.5L85.828,214.587L91.373,215.171L94,216.047L95.168,218.09ZM175.438,169.053L173.686,181.896L170.476,191.236L165.514,197.366L164.054,200.577L159.968,202.912L154.714,208.166L144.497,215.463L130.487,222.177L122.898,223.052L118.227,222.177L111.514,218.966L103.341,206.706L102.173,198.533L101.298,197.366L102.173,192.404L102.757,180.436L103.633,178.393L103.341,175.474L101.298,174.015L104.217,164.09L116.476,151.247L118.227,149.788L131.654,143.95L138.368,142.491L152.962,143.366L164.93,149.788L173.103,160.004L175.438,169.053ZM251.621,169.053L249.87,181.896L246.659,191.236L241.697,197.366L240.237,200.577L236.151,202.912L230.897,208.166L220.681,215.463L206.67,222.177L199.081,223.052L194.411,222.177L187.697,218.966L179.524,206.706L178.357,198.533L177.481,197.366L178.357,192.404L178.941,180.436L179.816,178.393L179.524,175.474L177.481,174.015L180.4,164.09L192.659,151.247L194.411,149.788L207.838,143.95L214.551,142.491L229.146,143.366L241.113,149.788L249.286,160.004L251.621,169.053ZM164.346,171.388L162.887,168.469L162.595,164.09L151.211,153.582L147.124,151.831L139.827,151.247L135.157,151.831L133.114,153.582L129.319,153.874L117.644,161.755L117.644,162.631L118.227,163.215L119.103,167.301L117.06,171.096L114.433,178.685L112.39,192.988L114.141,205.831L117.644,211.085L123.189,211.669L129.319,211.669L147.124,201.744L157.633,192.112L162.887,182.771L164.054,178.685L164.346,171.388ZM240.529,171.388L239.07,168.469L238.778,164.09L227.394,153.582L223.308,151.831L216.011,151.247L211.34,151.831L209.297,153.582L205.503,153.874L193.827,161.755L193.827,162.631L194.411,163.215L195.286,167.301L193.243,171.096L190.616,178.685L188.573,192.988L190.324,205.831L193.827,211.085L199.373,211.669L205.503,211.669L223.308,201.744L233.816,192.112L239.07,182.771L240.237,178.685L240.529,171.388ZM105.659,142.781L105.274,145.38L104.407,148.365L103.445,149.809L98.824,153.564L93.914,156.548L92.566,156.933L91.892,157.414L90.352,157.8L89.87,158.281L87.656,158.859L83.42,159.34L79.665,159.147L73.793,157.126L70.904,155.104L68.979,153.371L66.091,148.846L65.417,146.728L65.032,146.439L64.743,144.899L64.261,142.492L64.261,139.315L64.743,137.101L65.032,135.56L65.032,135.272L68.69,131.036L72.252,127.955L76.103,126.029L78.895,125.067L81.206,124.682L82.553,124.393L82.265,122.852L81.013,121.216L81.013,120.831L77.162,116.113L76.584,114.38L76.777,113.514L76.777,113.321L76.488,113.032L72.734,112.455L69.845,111.396L68.112,109.952L66.091,107.16L65.32,104.56L65.32,100.613L67.631,95.222L68.305,94.067L69.845,92.719L72.734,92.719L73.6,93.2L74.37,94.644L75.622,94.067L77.258,93.393L78.125,92.141L78.125,91.852L81.687,88.579L82.553,87.616L82.842,87.616L86.501,84.247L89.004,84.343L90.063,86.172L89.678,88.098L89.678,89.638L88.811,90.312L87.848,90.312L87.848,90.216L87.367,89.638L86.116,90.216L84.19,91.467L82.265,94.163L85.634,97.918L87.656,101.865L87.656,105.042L86.308,108.123L83.709,110.337L80.339,112.166L80.243,112.359L81.398,113.706L82.072,115.728L84.19,118.616L86.789,123.334L88.33,126.318L89.196,126.896L89.485,128.34L89.293,128.821L90.063,129.303L92.181,129.303L95.839,130.169L98.342,131.132L101.038,133.442L103.734,136.812L104.889,139.604L105.274,141.144L105.659,142.781ZM102.386,141.529L101.519,138.641L98.535,134.887L96.321,133.539L92.951,132.383L85.923,132.383L85.057,132.755L83.227,133.033L80.339,134.053L76.103,137.301L75.14,137.486L74.659,137.101L74.659,136.234L74.948,134.887L77.162,132.383L78.606,131.517L79.858,130.65L84.094,129.303L82.553,128.147L81.687,128.147L81.494,128.34L79.665,128.436L76.777,129.303L72.734,131.709L70.423,133.924L69.364,135.368L68.305,137.486L67.824,139.123L67.631,142.396L68.69,146.632L70.423,150.387L73.793,154.045L75.429,154.911L76.97,155.778L79.665,156.452L83.901,156.452L89.004,155.489L91.025,154.911L93.721,153.564L98.342,150.483L100.942,148.076L102.289,145.765L102.386,141.529ZM152.255,119.772L152.063,123.045L150.522,123.045L149.752,122.178L149.752,121.697L149.175,121.216L149.175,120.446L148.693,119.772L148.693,114.091L148.308,113.514L148.693,113.032L148.501,106.197L148.116,102.154L148.116,101.287L147.634,99.65L147.827,98.303L148.886,97.244L150.522,97.629L151.389,98.303L151.678,98.591L151.678,103.501L152.063,103.983L151.678,104.849L151.678,112.455L151.87,117.461L152.255,119.772ZM142.05,71.539L141.665,75.967L141.473,85.595L140.703,98.495L140.317,101.672L140.414,113.418L140.799,114.669L140.991,116.113L141.28,116.498L141.665,118.713L141.28,119.194L141.28,119.483L140.317,119.868L139.644,119.772L138.585,118.713L137.526,116.113L137.237,112.359L137.237,104.945L137.526,99.073L138.103,92.719L138.103,88.386L138.433,84.632L138.873,80.877L138.873,73.945L137.814,72.501L137.814,71.539L138.585,70.576L139.066,70.383L141.184,70.865L141.473,71.057L142.05,71.539ZM115.671,101.865L115.094,106.101L114.035,109.182L112.398,111.203L111.917,112.262L110.569,113.032L108.836,114.765L105.466,117.172L100.845,119.386L98.342,119.675L96.802,119.386L94.588,118.327L91.892,114.284L91.507,111.588L91.218,111.203L91.507,109.567L91.699,105.619L91.988,104.945L91.892,103.983L91.218,103.501L92.181,100.228L96.224,95.992L96.802,95.511L101.23,93.585L103.445,93.104L108.258,93.393L112.206,95.511L114.901,98.88L115.671,101.865ZM134.252,100.324L134.06,103.405L133.097,106.101L132.134,107.834L131.942,108.7L130.401,110.529L125.491,117.461L123.277,119.001L122.218,119.001L120.389,117.75L119.715,115.921L118.367,113.514L117.982,111.877L117.501,106.967L117.019,101.287L116.153,100.228L116.153,98.784L116.538,98.11L116.634,98.11L117.308,97.436L117.308,94.355L117.789,88.098L118.175,86.461L118.56,77.604L118.56,73.368L118.848,72.501L119.041,72.213L120.004,71.539L120.87,71.539L121.737,72.694L121.737,77.315L121.255,82.514L121.255,83.765L120.87,88.29L120.774,92.237L120.774,96.762L123.662,96.762L126.647,96.473L127.898,96.762L129.727,96.955L132.712,98.303L134.252,100.324ZM175.168,115.719L175.069,116.879L173.787,117.942L172.602,117.75L171.912,117.365L171.221,116.306L170.644,109.278L170.644,102.154L169.777,98.591L169.585,98.495L168.814,99.458L168.044,100.806L165.926,104.657L163.712,108.893L159.572,114.38L157.935,115.728L157.358,115.536L155.721,114.188L155.24,113.032L155.336,110.626L156.588,103.694L156.78,101.865L157.069,101.287L157.069,98.206L156.203,96.185L156.395,95.318L157.743,94.259L159.283,93.874L160.15,94.548L160.631,95.029L160.631,100.806L160.15,102.539L159.957,104.079L159.476,106.582L159.283,106.775L159.283,107.256L159.771,107.834L161.917,105.508L164.258,100.953L165.136,99.016L166.209,97.368L167.868,94.751L169.233,93.394L170.307,93.104L171.964,93.296L172.843,94.167L174.013,100.932L174.013,110.791L174.687,114.657L175.168,115.719ZM112.013,102.635L111.532,101.672L111.435,100.228L107.681,96.762L106.333,96.185L103.926,95.992L102.386,96.185L101.712,96.762L100.46,96.859L96.609,99.458L96.609,99.747L96.802,99.939L97.091,101.287L96.417,102.539L95.55,105.042L94.876,109.759L95.454,113.995L96.609,115.728L98.439,115.921L100.46,115.921L106.333,112.647L109.799,109.47L111.532,106.39L111.917,105.042L112.013,102.635ZM130.883,102.057L130.016,100.709L128.38,99.843L126.454,99.65L126.358,99.843L124.625,99.843L121.352,100.228L120.87,100.709L120.485,101.672L120.87,105.812L121.352,109.759L122.218,112.359L123.085,113.514L123.758,112.936L124.432,112.744L125.299,111.877L129.535,106.101L130.594,104.079L130.883,102.057ZM84.575,103.213L84.19,102.924L84.19,101.672L81.206,97.918L79.376,96.377L77.162,96.377L75.237,97.051L74.081,97.244L73.6,96.955L73.6,95.896L73.215,95.511L72.348,95.511L72.06,95.703L70.616,97.051L70.519,97.821L69.653,98.688L69.171,100.036L68.786,101.191L68.786,103.983L69.557,106.39L70.904,108.219L71.675,108.796L73.889,109.663L76.777,109.855L77.643,109.47L78.895,109.278L81.013,108.123L81.013,107.93L84.094,105.619L84.575,103.213ZM150.33,80.3L150.234,80.973L149.463,81.359L145.612,80.781L144.265,80.107L143.206,78.567L143.206,77.604L143.88,76.352L144.746,75.871L146.768,76.063L148.116,77.122L149.175,79.048L150.33,80.3Z" />
</svg>